PathFileType	4	(X/Y/Z)	C:\Users\ebm\Documents\Erivelton\Erivelton2\wc8.trc
DataRate	CameraRate	NumFrames	NumMarkers	Units	OrigDataRate	OrigDataStartFrame	OrigNumFrames
150.00	150.00	      4	28	mm	150.00	860	      1146
Frame#	Time	IJ			PX			C7			T8			RAC			RAS			RPS			RAI			RPI			RLE			RME			RRS			RUS			R3M			R5M			LAC			LAS			LPS			LAI			LPI			LLE			LME			LRS			LUS			L3M			L5M			RW			LW			V_mid_elbow_r			V_mid_elbow_l			V_mid_wrist_r			V_mid_wrist_l			V_mid_trunk_low			V_mid_trunk_upp			
		X1	Y1	Z1	X2	Y2	Z2	X3	Y3	Z3	X4	Y4	Z4	X5	Y5	Z5	X6	Y6	Z6	X7	Y7	Z7	X8	Y8	Z8	X9	Y9	Z9	X10	Y10	Z10	X11	Y11	Z11	X12	Y12	Z12	X13	Y13	Z13	X14	Y14	Z14	X15	Y15	Z15	X16	Y16	Z16	X17	Y17	Z17	X18	Y18	Z18	X19	Y19	Z19	X20	Y20	Z20	X21	Y21	Z21	X22	Y22	Z22	X23	Y23	Z23	X24	Y24	Z24	X25	Y25	Z25	X26	Y26	Z26	X27	Y27	Z27	X28	Y28	Z28	

860	5.727	2993.94971	1033.21741	94.67561	2989.97070	864.78632	122.68620	2869.82349	1136.08984	70.02828	2785.72388	994.54211	76.92076	2909.31396	1086.51074	287.61850	2955.43701	898.73749	344.06775	2907.96387	896.41052	360.82440	2975.10278	825.73615	364.11926	2925.04053	820.04425	383.01334	2957.83569	755.10797	388.53506	2921.01099	728.68298	320.81247	3182.69482	739.59631	229.59193	3185.00952	708.70642	284.43793	3264.07349	709.14624	239.14716	3251.90137	685.54065	269.30807	2927.14014	1065.77441	-102.11933	2969.37866	898.46381	-163.18301	2924.73267	879.92175	-166.00052	3006.15088	826.12860	-170.36398	2956.73193	802.46503	-173.12834	3034.42456	739.05334	-174.57365	2983.72852	708.78107	-124.13674	3225.82642	727.05908	16.60482	3246.92603	698.37354	-37.55542	3317.01050	699.77728	7.12898	3299.78662	685.34015	-29.35216	2853.57373	302.34698	419.56570	2936.23682	299.28009	-205.03372	
861	5.733	3001.82520	1033.22546	95.66698	2997.64380	864.52905	123.57272	2877.50732	1136.08569	71.07183	2793.46167	994.58093	78.13732	2917.29517	1086.58765	288.64398	2963.01514	898.86823	345.47839	2915.29468	896.65936	362.10660	2982.31543	825.81250	365.56012	2932.14795	820.24707	384.39761	2964.84058	755.21606	390.08463	2928.11743	728.77167	322.45688	3190.19263	739.69043	231.80238	3192.38647	708.26270	286.48489	3271.39502	708.94843	241.20871	3259.90771	684.98993	271.30765	2934.59692	1065.72791	-101.06221	2976.51440	898.43549	-162.12054	2932.00098	879.93463	-165.02022	3013.57764	826.18750	-169.13260	2963.99829	802.38910	-172.11830	3041.65820	738.86517	-173.52930	2991.07397	708.62634	-123.02793	3233.25806	727.13007	17.17747	3254.42163	698.08545	-36.97113	3324.46851	699.81036	7.68183	3307.27490	685.15497	-28.64316	2860.94263	302.13898	420.70453	2943.86865	299.07825	-204.00728	
862	5.740	3010.06421	1033.42126	96.61105	3005.40161	864.68610	124.69833	2885.26953	1136.06775	72.24921	2801.11182	994.61584	79.34225	2925.09937	1086.64185	289.68182	2970.31372	898.85364	346.91168	2922.64990	896.83789	363.40118	2989.32495	825.86255	367.21738	2939.25732	820.45197	385.91705	2971.76172	755.36816	391.82770	2935.13403	728.87720	324.00143	3197.40112	739.43732	234.02611	3199.25073	707.80139	288.74283	3278.40454	708.76324	243.39758	3267.18140	684.37018	272.94745	2941.88135	1065.65491	-100.02023	2983.78882	898.44983	-161.01859	2939.30371	879.86786	-163.88663	3020.80615	826.10742	-168.21562	2971.14917	802.29218	-171.03946	3048.75879	738.73328	-172.51051	2998.22974	708.57343	-121.99120	3240.94458	727.06921	17.65377	3261.57397	697.79138	-36.41445	3331.91992	699.60333	8.13396	3314.64868	684.82880	-28.14092	2868.53369	302.23190	421.66766	2951.26953	299.07587	-203.02151	
863	5.747	3017.75488	1033.37646	97.59132	3013.14795	864.60553	125.78622	2893.03540	1136.07996	73.27463	2808.76245	994.65204	80.53781	2933.05371	1086.68799	290.69443	2977.70410	898.89294	348.31036	2929.99683	897.00482	364.63553	2996.62866	825.86084	368.79526	2946.34326	820.65344	387.34592	2978.72388	755.48724	393.50101	2942.13379	728.94934	325.66843	3204.60791	739.08765	236.31305	3206.37598	707.30835	290.89987	3285.73096	708.50543	245.52585	3274.24707	683.85547	274.99387	2949.28735	1065.59814	-98.98092	2991.04541	898.23297	-159.91093	2946.48120	879.74841	-162.80603	3028.04150	826.00208	-167.22191	2978.44287	802.15717	-169.95099	3055.98901	738.59485	-171.36263	3005.46899	708.49988	-120.85290	3248.63354	727.24042	18.29658	3269.26172	697.51093	-35.73146	3339.40771	699.53107	8.73620	3322.31201	684.46436	-27.45757	2876.08350	302.17642	422.67685	2958.73242	299.12836	-201.85464	
